# xmcd
#
# Track frame offsets:
#	150
#	15167
#	29970
#	48160
#	65995
#	82515
#	98527
#	117140
#	130672
#	147457
#	162710
#	180047
#
# Disc length: 2627 seconds
#
# Revision: 0
# Processed by: cddbd v1.4PL0 Copyright (c) Steve Scherf et al.
# Submitted via: audiograbber 1.80
#
DISCID=920a410c
DTITLE=Various Artist - Signatures
DYEAR=1900
DGENRE=
TTITLE0=Don Schlitz - Life's Too Short
TTITLE1=Bob McDill - Song of the South
TTITLE2=Mike Reid - Old Folks
TTITLE3=Rhonda Kye Fleming - She Must be Beautiful
TTITLE4=Don Schlitz - Letter in the Fire
TTITLE5=Mark Wright - The Darkest Stretch of Road
TTITLE6=Mike Reid - You Still Love Him
TTITLE7=Bob McDill - Still Got You Baby
TTITLE8=Mike Reid - Too Soon to Tell
TTITLE9=Rhonda Kye Fleming - Every Love
TTITLE10=Don Schlitz - Just as Long
TTITLE11=Many Forgiving Years - Mark Wright
EXTD=
EXTT0=
EXTT1=
EXTT2=
EXTT3=
EXTT4=
EXTT5=
EXTT6=
EXTT7=
EXTT8=
EXTT9=
EXTT10=
EXTT11=
PLAYORDER=
